<?xml version="1.0" encoding="UTF-8" standalone="no"?>
<!DOCTYPE svg PUBLIC "-//W3C//DTD SVG 1.1//EN" "http://www.w3.org/Graphics/SVG/1.1/DTD/svg11.dtd">
<svg width="100%" height="100%" viewBox="0 0 600 338" version="1.1" xmlns="http://www.w3.org/2000/svg" xmlns:xlink="http://www.w3.org/1999/xlink" xml:space="preserve" xmlns:serif="http://www.serif.com/" style="fill-rule:evenodd;clip-rule:evenodd;stroke-linejoin:round;stroke-miterlimit:2;">
    <path d="M330.332,73.673L339.447,73.673L339.447,130.514L347.57,130.514L347.57,146.204L352.195,146.204L352.195,112.014L358.345,112.014L358.345,142.642L370.612,142.642L370.612,146.204L371.776,146.204L371.776,148.932L381.158,148.932L381.158,256.636L386.024,256.636L386.024,203.925L414.14,203.925L414.14,213.353L436.382,213.353L436.382,246.316L453.433,246.316L453.433,256.636L458.986,256.636L458.986,244.129L466.77,244.129L466.77,165.26L480.439,165.26L480.439,244.129L489.674,244.129L489.674,256.636L495.703,256.636L495.703,320.863L79.575,320.863L79.575,256.636L92.157,256.636L92.157,222.012L120.273,222.012L120.273,256.636L123.28,256.636L123.28,176.177L182.791,176.177L182.791,228.607L187.281,228.607L187.281,190.321L205.039,190.321L205.039,139.875L222.731,139.875L222.731,138.73L195.147,138.73L195.147,136.41L222.731,136.41L222.731,135.62L191.967,135.62L191.967,132.976L222.731,132.976L222.731,118.43L254.22,118.43L254.22,130.545L265.893,130.545L265.893,134.175L254.22,134.175L254.22,135.083L261.37,135.083L261.37,137.302L254.22,137.302L254.22,139.875L257.717,139.875L257.717,167.617L267.949,167.617L267.949,256.636L271.808,256.636L271.808,190.909L300.703,190.909L300.703,223.539L314.754,223.539L314.754,73.673L323.872,73.673L323.872,34.14L330.332,34.14L330.332,73.673ZM288.075,187.566L284.18,187.566L284.18,180.612L288.075,180.612L288.075,187.566ZM288.075,177.615L284.18,177.615L284.18,170.659L288.075,170.659L288.075,177.615ZM175.569,175.782L130.502,175.782L130.502,167.695L175.569,167.695L175.569,175.782ZM288.075,167.247L284.18,167.247L284.18,160.293L288.075,160.293L288.075,167.247ZM168.628,167.138L137.443,167.138L137.443,160.859L168.628,160.859L168.628,167.138ZM485.442,164.483L461.767,164.483L461.767,160.948L485.442,160.948L485.442,164.483ZM496.449,160.4L450.76,160.4L450.76,154.594L496.449,154.594L496.449,160.4ZM161.086,160.189L144.985,160.189L144.985,155.622L161.086,155.622L161.086,160.189ZM288.075,157.295L284.18,157.295L284.18,150.341L288.075,150.341L288.075,157.295ZM155.622,155.038L150.449,155.038L150.449,152.123L155.622,152.123L155.622,155.038ZM490.596,153.544L456.613,153.544L456.613,150.616L490.596,150.616L490.596,153.544ZM481.027,149.801L466.178,149.801L466.178,148.281L481.027,148.281L481.027,149.801ZM481.027,147.313L466.178,147.313L466.178,145.793L481.027,145.793L481.027,147.313ZM481.027,144.825L466.178,144.825L466.178,143.305L481.027,143.305L481.027,144.825ZM481.027,142.338L466.178,142.338L466.178,140.817L481.027,140.817L481.027,142.338ZM481.027,139.85L466.178,139.85L466.178,138.329L481.027,138.329L481.027,139.85ZM481.027,137.362L466.178,137.362L466.178,135.841L481.027,135.841L481.027,137.362ZM473.959,134.751L472.129,134.751L472.129,84.33L473.959,84.33L473.959,134.751Z" />
</svg>
